<svg width="51" height="49" viewBox="0 0 51 49" fill="none" xmlns="http://www.w3.org/2000/svg">
<rect width="51" height="49" rx="24.5" fill="#F2F2F2"/>
<path d="M18.9016 23.436C18.963 23.426 19.0251 23.4213 19.0872 23.4221H29.6694L29.4387 23.3137C29.2131 23.2058 29.0079 23.059 28.8323 22.8798L25.8648 19.881C25.4739 19.504 25.4083 18.8974 25.7092 18.4439C26.0593 17.9606 26.7309 17.8557 27.2091 18.2096C27.2478 18.2382 27.2845 18.2694 27.319 18.3029L32.6852 23.7258C33.1046 24.1491 33.105 24.8359 32.6861 25.2597C32.6858 25.2599 32.6855 25.2602 32.6852 25.2605L27.319 30.6834C26.8993 31.1064 26.2198 31.1054 25.8012 30.6813C25.7683 30.6479 25.7375 30.6124 25.7092 30.5749C25.4083 30.1214 25.4739 29.5149 25.8648 29.1379L28.8269 26.1336C28.9844 25.9743 29.1654 25.8407 29.3635 25.7377L29.6855 25.5913H19.1463C18.598 25.6119 18.117 25.2248 18.014 24.6803C17.9191 24.089 18.3165 23.532 18.9016 23.436Z" fill="#222222"/>
</svg>
