<svg width="106" height="106" viewBox="0 0 106 106" fill="none" xmlns="http://www.w3.org/2000/svg">
<path d="M106 94.6429C106 96.7364 104.304 98.4286 102.214 98.4286H29.5891C28.0219 102.824 23.8576 106 18.9286 106C13.9996 106 9.83529 102.824 8.268 98.4286H3.78571C1.696 98.4286 0 96.7364 0 94.6429C0 92.5494 1.696 90.8571 3.78571 90.8571H8.268C9.83529 86.4619 13.9996 83.2857 18.9286 83.2857C23.8576 83.2857 28.0219 86.4619 29.5891 90.8571H102.214C104.304 90.8571 106 92.5494 106 94.6429ZM45.4286 49.4225L64.1262 37.8571L45.4096 26.2804L45.4286 49.4225ZM106 11.3571V64.3571C106 70.6187 100.904 75.7143 94.6429 75.7143H11.3571C5.09557 75.7143 0 70.6187 0 64.3571V11.3571C0 5.09557 5.09557 0 11.3571 0H94.6429C100.904 0 106 5.09557 106 11.3571ZM71.6939 37.8571C71.6939 35.2147 70.3537 32.8108 68.105 31.4176L49.4074 19.8523C47.0791 18.4099 44.1376 18.3418 41.7413 19.6781C39.3449 21.0145 37.8571 23.5471 37.8571 26.2918V49.4225C37.8571 52.1671 39.3487 54.7036 41.7413 56.0361C42.8884 56.6759 44.1566 56.9901 45.4248 56.9901C46.8104 56.9901 48.1921 56.6116 49.4074 55.862L68.105 44.2929C70.3499 42.9035 71.6901 40.4958 71.6901 37.8534L71.6939 37.8571Z" fill="#808080"/>
</svg>
