<svg width="106" height="106" viewBox="0 0 106 106" fill="none" xmlns="http://www.w3.org/2000/svg">
<g opacity="0.5">
<path d="M71.6328 0H77.8438V8.28125H71.6328V0Z" fill="black"/>
<path d="M80.1332 24.0552L77.8817 14.4922H71.5908L69.3423 24.0552H80.1332Z" fill="black"/>
<path d="M87.1601 65.1293H106V8.28125H82.8L87.1601 26.8V65.1293Z" fill="black"/>
<path d="M68.5273 30.2661H80.9492V42.5267H68.5273V30.2661Z" fill="black"/>
<path d="M68.5273 48.7378H80.9492V65.1295H68.5273V48.7378Z" fill="black"/>
<path d="M62.3164 65.1293V26.8004L66.6709 8.28125H49.8945V65.1293H62.3164Z" fill="black"/>
<path d="M0 8.28125H18.8398V65.1293H0V8.28125Z" fill="black"/>
<path d="M18.8398 71.3398H0V85.0894H39.543V87.3668C39.543 94.2162 33.9705 99.7886 27.1211 99.7886V106H78.8789V99.7886C72.0295 99.7886 66.457 94.2162 66.457 87.3668V85.0894H106V71.3398H49.8945H18.8398Z" fill="black"/>
<path d="M43.6836 58.3145H34.3672V52.1035H43.6836V45.2885H34.3672V39.0776H43.6836V32.2627H34.3672V26.0518H43.6836V19.2367H34.3672V13.0258H43.6836V6.21094H25.0508V65.1293H43.6836V58.3145Z" fill="black"/>
</g>
</svg>
