<svg width="106" height="106" viewBox="0 0 106 106" fill="none" xmlns="http://www.w3.org/2000/svg">
<g opacity="0.5">
<path d="M14.0184 37.6096C17.064 26.349 25.8523 17.4241 37.032 14.1819V7.75586C22.5689 11.2463 11.1693 22.6783 7.72656 37.16C8.39133 37.075 9.06984 37.0322 9.75725 37.0322C11.234 37.0322 12.6622 37.2327 14.0184 37.6096Z" fill="black"/>
<path d="M91.9819 37.609C93.3381 37.2321 94.7663 37.0315 96.243 37.0315C96.9304 37.0315 97.6089 37.0744 98.2737 37.1593C94.831 22.6776 83.4313 11.2456 68.9683 7.75684V14.1813C80.1463 17.4234 88.9346 26.3508 91.9819 37.609Z" fill="black"/>
<path d="M46.3474 19.5159H59.6524C61.3677 19.5159 62.7579 18.1257 62.7579 16.4105V3.10547C62.7579 1.39018 61.3677 0 59.6524 0H46.3474C44.6321 0 43.2419 1.39018 43.2419 3.10547V16.4105C43.2419 18.1257 44.6321 19.5159 46.3474 19.5159Z" fill="black"/>
<path d="M19.5159 52.9997C19.5159 47.6193 15.1384 43.2417 9.75797 43.2417C4.37758 43.2417 0 47.6193 0 52.9997C0 58.3801 4.37758 62.7576 9.75797 62.7576C15.1384 62.7576 19.5159 58.3801 19.5159 52.9997Z" fill="black"/>
<path d="M96.2421 43.2417C90.8617 43.2417 86.4841 47.6193 86.4841 52.9997C86.4841 58.3801 90.8617 62.7576 96.2421 62.7576C101.622 62.7576 106 58.3801 106 52.9997C106 47.6193 101.622 43.2417 96.2421 43.2417Z" fill="black"/>
<path d="M56.1054 25.4502V63.7073C59.9686 65.0077 62.757 68.6615 62.757 72.9574C62.757 78.3386 58.3803 82.7154 52.9999 82.7154C47.6195 82.7154 43.2427 78.3386 43.2427 72.9574C43.2427 68.6615 46.0312 65.0077 49.8944 63.7073V25.4502L17.1528 74.5619C16.0586 76.2003 16.7557 78.4381 18.5834 79.1667C30.0324 83.7473 33.264 94.4984 33.264 100.849V102.894C33.264 104.609 34.6526 106 36.3695 106H69.6303C71.3472 106 72.7358 104.609 72.7358 102.894V100.849C72.7358 94.5072 75.9448 83.7562 87.4164 79.1667C89.2457 78.4373 89.9396 76.1987 88.847 74.5619L56.1054 25.4502Z" fill="black"/>
</g>
</svg>
